<svg width="24" height="24" viewBox="0 0 24 24" fill="none" xmlns="http://www.w3.org/2000/svg">
<path fill-rule="evenodd" clip-rule="evenodd" d="M13 2.00001L5 2.00001C3.34315 2.00001 2 3.34316 2 5.00001V19C2 20.6569 3.34315 22 5 22H19C20.6569 22 22 20.6569 22 19V11H20V19C20 19.5523 19.5523 20 19 20H5C4.44772 20 4 19.5523 4 19V5.00001C4 4.44773 4.44771 4.00001 5 4.00001H13V2.00001Z" fill="#171717"/>
<path d="M10.355 16.3903L7.63198 13.6673L17.885 3.41422L20.608 6.13722L10.355 16.3903Z" fill="#171717"/>
<path d="M20.9616 5.78367L18.2386 3.06066L19.2992 2L22.0222 4.72301L20.9616 5.78367Z" fill="#171717"/>
<path d="M5.81251 18.2118L7.28044 14.0228L10.0014 16.7438L5.81251 18.2118Z" fill="#171717"/>
</svg>
